<svg xmlns="http://www.w3.org/2000/svg" xmlns:xlink="http://www.w3.org/1999/xlink" width="1160px" height="530px" viewBox="0 0 1160 530" preserveAspectRatio="xMidYMid meet"  ><rect id="svgEditorBackground" x="0" y="0" width="1160" height="530" style="fill: none; stroke: none;"/><defs id="svgEditorDefs"><linearGradient gradientUnits="objectBoundingBox" id="lrgd2-e1-50-reflect" spreadMethod="reflect" x1="0%" x2="50%" y1="0%" y2="0%"><stop offset="0%" stop-color="lightblue"/><stop offset="100%" stop-color="#1B2794"/></linearGradient><pattern height="10" id="hatch-blue-45" patternTransform="rotate(45) scale(0.4)" patternUnits="userSpaceOnUse" viewBox="0 0 10 10" width="10" x="0" y="0"><line style="stroke:#000040;stroke-width:1px;" x1="0" x2="10" y1="5" y2="5"/></pattern><linearGradient gradientUnits="objectBoundingBox" id="lgrd2-black-white" spreadMethod="pad" x1="0%" x2="100%" y1="0%" y2="100%" gradientTransform="rotate(22.8112) scale(0.414973 0.414973)"><stop offset="0%" stop-color="black" style="stop-opacity: 0.406;"/><stop offset="100%" stop-color="white"/></linearGradient><pattern height="10" id="hatch-black-dash-120" patternTransform="rotate(120) scale(0.4)" patternUnits="userSpaceOnUse" viewBox="0 0 24 10" width="24" x="0" y="0"><line style="stroke:black;stroke-width:1px;stroke-dasharray:4,4;" x1="0" x2="24" y1="5" y2="5"/></pattern><pattern height="10" id="hatch-black-dash-45" patternTransform="rotate(95.4752) scale(0.4 0.4)" patternUnits="userSpaceOnUse" viewBox="0 0 24 10" width="24" x="0" y="0" preserveAspectRatio="xMidYMid meet"><line style="stroke:black;stroke-width:1px;stroke-dasharray:4,4;" x1="0" x2="24" y1="5" y2="5"/></pattern><pattern height="10" id="hatch-blue-dash-45" patternTransform="rotate(75) scale(0.991226 0.991226)" patternUnits="userSpaceOnUse" viewBox="0 0 24 10" width="24" x="0" y="0" preserveAspectRatio="xMidYMid meet"><line style="stroke:blue;stroke-width:1px;stroke-dasharray:4,4;" x1="0" x2="24" y1="5" y2="5"/></pattern><pattern height="10" id="hatch-black-45" patternTransform="rotate(45) scale(0.4)" patternUnits="userSpaceOnUse" viewBox="0 0 10 10" width="10" x="0" y="0"><line style="stroke:black;stroke-width:1px;" x1="0" x2="10" y1="5" y2="5"/></pattern><filter filterUnits="objectBoundingBox" id="FilterGaussianBlur1" primitiveUnits="objectBoundingBox"><feGaussianBlur stdDeviation="0.0125"/></filter></defs><rect x="161" y="69" style="fill:url(#lrgd2-e1-50-reflect);stroke:black;stroke-width:1px;" id="e4_rectangle" width="417" height="295" rx="0" transform="matrix(0.471003 0 0 0.491444 282.6 114.906)" ry="0"/><text style="fill:black;font-family:Freehand521 BT;font-size:200px;font-style:oblique;stroke:#BFBA86;" x="335.646" y="486.776" id="e10_texte" transform="matrix(0.418395 -0.458206 0.384759 0.351329 106.8 229.332)" dy="" dx="">L</text><text style="fill:url(#hatch-blue-dash-45);font-family:Vodafone ExB;font-size:50px;font-style:oblique;stroke:#454228;" x="266.213" y="308.07" id="e14_texte" transform="matrix(1.15785 -1.27893 1.27893 1.15785 -234.568 278.02)" dy="" dx="">H</text></svg>